<?xml version="1.0" encoding="utf-8"?>
<!-- Generator: Adobe Illustrator 24.1.1, SVG Export Plug-In . SVG Version: 6.00 Build 0)  -->
<svg version="1.1" id="Calque_1" xmlns="http://www.w3.org/2000/svg" xmlns:xlink="http://www.w3.org/1999/xlink" x="0px" y="0px"
	 viewBox="0 0 144 71.2" style="enable-background:new 0 0 144 71.2;" xml:space="preserve">
<style type="text/css">
	.st0{fill:#FFFFFF;}
</style>
<g>
	<path class="st0" d="M19.7,27.5c-3.5-0.1-7.7,2.1-7.7,5.8c0,0.9,0.2,1.6,0.7,2.1c-0.5,0.2-1,0.3-1.5,0.3c-1.8,0-2.8-1.7-2.8-3.5
		c0.1-4,6.5-6.5,12-6.4c4.4,0.1,7.6,1.2,7.5,5.4c-0.1,2.8-2.1,6-5.7,7.8l0,0c3.7,0.1,5.3,2.1,5.2,4.7c-0.1,4.4-4.9,10.2-11.6,10
		c-3.9-0.1-7.1-1.2-7.1-2.9c0-0.8,0.5-1.5,1.5-1.8c0.5,0.5,1,0.9,1.6,1.2l4.4-19.3c0.4-1.7,1.8-2.3,3.1-2.2c0.6,0,1.3,0.2,1.7,0.5
		l-2.3,9.7c2.9-0.8,5.2-4.4,5.2-7.4C23.9,28.8,22.6,27.6,19.7,27.5z M18.2,40.8l-2.5,10.8l0,0c3.6,0.1,7-3.8,7-7.7
		c0-1.9-0.9-3.2-3-3.3C19.3,40.6,18.8,40.6,18.2,40.8z"/>
	<path class="st0" d="M46.7,39.7c-0.9,0.8-2.3,2.4-3.8,3.3c0,0.1,0,0.3,0,0.4c-0.1,5.5-5.2,10.9-9.4,10.8c-3.6-0.1-5.1-3.1-5-6.5
		c0.1-5.5,4-12.2,9.3-12.1c1.8,0,3.2,0.6,4.2,2.2c-0.1,0.8-0.7,1.2-1.2,1c-0.7-0.3-1.4-0.4-2.2-0.4c-3.2-0.1-5.4,4.7-5.5,8.3
		c-0.1,3.2,1,4.4,2.2,4.5c1.8,0,4.1-2.6,4.2-5.8c0-0.5,0-1-0.1-1.5c-0.6-0.1-1.2-0.2-1.6-0.5c-0.7-2,0.1-3.8,2.1-3.7
		c1.2,0,2.2,0.7,2.7,1.7c1.4-0.9,2.8-2.4,4.3-3.6C47.4,38.3,47.2,39.3,46.7,39.7z"/>
	<path class="st0" d="M58.5,48.7c-0.4,1.8,0,2.6,0.7,2.7c0.6,0,1.5-0.4,2-1.7c0.7,0,1,0.4,1,1c-0.1,2.5-3,4.2-5,4.1
		c-1.8,0-4.2-1-3.3-5.2l1.6-7.2c0.4-1.5-0.1-2.1-0.9-2.2c-1,0-2.4,0.9-3.2,1.8l-2.4,10.2c-0.4,1.7-1.7,2.2-3,2.2
		c-0.6,0-1.2-0.2-1.6-0.5l3.2-13.8c0.2-0.6,0-0.9-0.3-0.9c-0.2,0-0.4,0.1-0.7,0.4c-0.5-0.3-0.7-1.4,0-2c1.2-0.9,2.5-1.7,4-1.6
		c1.3,0,2,0.7,1.6,2L52,39.7c1.5-2.1,3.8-3.5,5.9-3.5c1.9,0,3.1,1.6,2.3,5.4L58.5,48.7z"/>
	<path class="st0" d="M92.7,55.5c-1.8,0-3.3-0.9-3.7-2.8c-1.1,0.4-2.4-0.2-2.5-1.5c1-0.2,1.7-0.8,2.6-1.6c1.9-12.8,4.4-20.2,9-20.1
		c1.7,0,2.8,1.1,2.8,3c-0.1,2.8-2.5,8.5-7.2,15.6c-0.1,0.4-0.2,0.9-0.2,1.3c-0.3,1.9,0.6,2.6,1.8,2.6c1.9,0,4.8-1.7,5.5-3.6
		c0.7-0.1,1.1,0.7,0.8,1.4C100.3,53.1,96,55.6,92.7,55.5z M94.1,44.9c3.2-5.8,4.6-10.9,4.7-12.1c0-0.6-0.2-0.8-0.6-0.8
		C97.1,31.9,95.5,37.3,94.1,44.9z"/>
	<path class="st0" d="M113,38.5c0.6-0.7,1.5-1,2.4-1c0.6,0,1.2,0.2,1.6,0.5l-2.7,11.9c-0.5,2,0.1,2.7,1,2.7c1.3,0,2.8-0.8,3.7-1.7
		c0.4,0.2,0.6,0.5,0.6,0.9c0,0.3-0.1,0.5-0.3,0.8c-1.7,1.9-4.3,3.5-6.2,3.4c-1.7,0-3.3-0.9-3.2-3.7c-1.5,2.1-3.4,3.6-5.4,3.5
		c-3.7-0.1-4.3-3.9-4.3-6.2c0.1-6.3,4.3-12.5,9.2-12.4C111,37.2,112.1,37.7,113,38.5z M112.3,40.3c-0.6-0.2-1.1-0.3-1.6-0.3
		c-4.3-0.1-5.9,5.6-6,9.5c0,1.8,0.8,2.6,1.8,2.6c1.1,0,2.6-0.9,3.6-2.2L112.3,40.3z"/>
	<path class="st0" d="M131.6,50.3c-0.4,1.8,0,2.6,0.7,2.7c0.6,0,1.5-0.4,2-1.7c0.7,0,1,0.4,1,1c-0.1,2.5-3,4.2-5,4.1
		c-1.8,0-4.2-1-3.3-5.2l1.6-7.2c0.4-1.5-0.1-2.1-0.9-2.2c-1,0-2.4,0.9-3.2,1.8l-2.4,10.2c-0.4,1.7-1.7,2.2-3,2.2
		c-0.6,0-1.2-0.2-1.6-0.5l3.2-13.8c0.2-0.6,0-0.9-0.3-0.9c-0.2,0-0.4,0.1-0.7,0.4c-0.5-0.3-0.7-1.4,0-2c1.2-0.9,2.5-1.7,4-1.6
		c1.3,0,2,0.7,1.6,2l-0.4,1.6c1.5-2.1,3.8-3.5,5.9-3.5c1.9,0,3.1,1.6,2.3,5.4L131.6,50.3z"/>
	<g>
		<g>
			<path class="st0" d="M8.7,67.2l0-0.9l0.3,0c0.2,0,0.3-0.1,0.3-0.3l0-4.9l-0.6,0l0-0.9l5.1,0l0,1.7L12.8,62l0-0.4
				c0-0.1,0-0.2-0.1-0.3c0,0-0.1-0.1-0.3-0.1l-1.8,0l0,1.9l2.6,0l0,1.1l-2.6,0l0,2.1l0.9,0l0,0.9L8.7,67.2z"/>
			<path class="st0" d="M23.5,66l1.7-4.9L24.6,61l0-0.9l2.4,0l2.2,6.1h0l0.6,0l0,0.9l-2.7,0l0-0.9l0.4,0c0.1,0,0.2,0,0.2-0.1
				c0,0,0-0.1,0-0.2l-0.2-0.7l-2.5,0l-0.3,0.9l0.6,0l0,0.9l-2.4,0l0-0.9l0.3,0C23.4,66.2,23.5,66.1,23.5,66z M26.2,61.3l-1,3l2,0
				L26.2,61.3L26.2,61.3z"/>
			<path class="st0" d="M41.7,66.2c0.8,0,1.3-0.3,1.3-1c0-0.4-0.2-0.6-0.6-0.8c-0.2-0.1-0.5-0.2-0.8-0.3c-0.3-0.1-0.6-0.2-0.8-0.3
				c-0.2-0.1-0.4-0.2-0.6-0.4c-0.4-0.3-0.6-0.8-0.6-1.4c0-0.6,0.2-1.1,0.7-1.5c0.4-0.4,1-0.6,1.7-0.6c0.7,0,1.4,0.1,2,0.4l0,1.6
				l-1.1,0.1l0-0.6c0-0.1,0-0.2,0-0.2c-0.1-0.1-0.3-0.2-0.7-0.2c-0.4,0-0.7,0.1-0.9,0.2s-0.3,0.4-0.3,0.7c0,0.2,0.1,0.4,0.3,0.6
				c0.1,0.1,0.3,0.2,0.5,0.3c0.2,0.1,0.5,0.1,0.7,0.2c0.2,0.1,0.5,0.2,0.7,0.3c0.2,0.1,0.4,0.2,0.6,0.4c0.4,0.3,0.6,0.8,0.6,1.5
				s-0.2,1.2-0.7,1.6c-0.5,0.4-1.1,0.6-1.9,0.6c-0.8,0-1.5-0.1-2.1-0.4l0-1.7l1.1-0.1l0,0.6c0,0.1,0,0.2,0,0.2c0,0,0.1,0.1,0.3,0.1
				C41.1,66.1,41.4,66.2,41.7,66.2z"/>
			<path class="st0" d="M56.3,65.9l0-4.8l-0.8,0c-0.2,0-0.2,0.1-0.2,0.3l0,0.5l-1.1-0.1l0-1.8l5.5,0l0,1.8l-1.1,0.1l0-0.5
				c0-0.1,0-0.2-0.1-0.3c0,0-0.1-0.1-0.3-0.1l-0.7,0l0,5l0.8,0l0,0.9l-3,0l0-0.9l0.6,0C56.2,66.2,56.3,66.1,56.3,65.9z"/>
			<path class="st0" d="M68.9,64.5l0-1l2.8,0l0,1L68.9,64.5z"/>
			<path class="st0" d="M81.7,67l0-0.9l0.3,0c0.2,0,0.3-0.1,0.3-0.3l0-4.9l-0.6,0l0-0.9l5.1,0l0,1.7l-1.1,0.1v-0.4
				c0-0.1,0-0.2-0.1-0.3c0,0-0.1-0.1-0.3-0.1l-1.8,0l0,1.9l2.6,0l0,1.1l-2.6,0l0,2.1l0.9,0l0,0.9L81.7,67z"/>
			<path class="st0" d="M100,59.8c0.8,0,1.5,0.3,2.1,0.9c0.6,0.6,0.8,1.5,0.8,2.7c0,1.2-0.3,2.1-0.8,2.8c-0.6,0.6-1.3,0.9-2.3,0.9
				c-1,0-1.7-0.3-2.2-0.9c-0.5-0.6-0.8-1.5-0.8-2.7c0-0.6,0.1-1.2,0.3-1.7c0.2-0.5,0.4-0.9,0.7-1.1C98.5,60.1,99.2,59.9,100,59.8z
				 M98.2,63.4c0,1.7,0.6,2.6,1.8,2.6c0.6,0,1.1-0.3,1.4-0.8c0.2-0.5,0.4-1,0.4-1.7c0-0.6-0.1-1.2-0.3-1.7c-0.1-0.3-0.3-0.5-0.5-0.7
				c-0.2-0.2-0.6-0.2-0.9-0.2c-0.4,0-0.7,0.1-1,0.4c-0.3,0.3-0.5,0.6-0.6,0.9C98.2,62.6,98.2,63,98.2,63.4z"/>
			<path class="st0" d="M116.4,59.8c0.8,0,1.5,0.3,2.1,0.9c0.6,0.6,0.8,1.5,0.8,2.7c0,1.2-0.3,2.1-0.8,2.8c-0.6,0.6-1.3,0.9-2.3,0.9
				c-1,0-1.7-0.3-2.2-0.9c-0.5-0.6-0.8-1.5-0.8-2.7c0-0.6,0.1-1.2,0.3-1.7c0.2-0.5,0.4-0.9,0.7-1.1
				C114.8,60.1,115.6,59.8,116.4,59.8z M114.5,63.4c0,1.7,0.6,2.6,1.8,2.6c0.6,0,1.1-0.3,1.4-0.8c0.2-0.5,0.4-1,0.4-1.7
				c0-0.6-0.1-1.2-0.3-1.7c-0.1-0.3-0.3-0.5-0.5-0.7c-0.2-0.2-0.6-0.2-0.9-0.2c-0.4,0-0.7,0.1-1,0.4c-0.3,0.3-0.5,0.6-0.6,0.9
				C114.5,62.6,114.5,63,114.5,63.4z"/>
			<path class="st0" d="M129.5,66.9l0-0.9l0.3,0c0.2,0,0.3-0.1,0.3-0.3l0-4.9l-0.6,0l0-0.9l2.9,0c1,0,1.8,0.3,2.4,0.8
				s0.9,1.4,0.9,2.4c0,0.7-0.1,1.2-0.3,1.7c-0.2,0.5-0.4,0.9-0.7,1.2c-0.6,0.6-1.4,0.8-2.3,0.8L129.5,66.9z M131.4,60.9l0,5l1.1,0
				c0.6,0,1.1-0.2,1.4-0.7s0.5-1.1,0.5-1.9c0-1.6-0.7-2.4-2.1-2.4L131.4,60.9z"/>
		</g>
	</g>
	<path class="st0" d="M87.6,14.1c-0.2,0-0.5,0-0.7,0c-4,0-8,0-11.9,0c-6.2,0-12.4,0-18.6,0c-0.4,0-0.4,0-0.4-0.4c0-0.6,0-1.2,0-1.8
		c0.1-1.3,0.8-2.3,1.7-3.2c1.2-1.2,2.6-2.1,4.1-2.7c2.5-1.1,5-1.6,7.7-1.8c2.4-0.2,4.8-0.1,7.2,0.3c1.2,0.2,2.5,0.6,3.7,0.9
		c1.6,0.5,3.1,1.3,4.5,2.3c1.1,0.9,2.1,1.9,2.5,3.3c0.1,0.5,0.2,0.9,0.2,1.4C87.6,12.9,87.6,13.5,87.6,14.1z M78.8,7.1
		c0,0.5,0.4,0.9,0.9,0.9c0.5,0,0.9-0.4,0.9-0.9c0-0.5-0.4-0.9-0.9-0.9C79.2,6.1,78.8,6.5,78.8,7.1z M80.7,9.7c0.4,0,0.7-0.3,0.7-0.6
		c0-0.4-0.3-0.7-0.6-0.7c-0.4,0-0.7,0.3-0.7,0.7C80,9.4,80.3,9.7,80.7,9.7z M77.9,8.5c0,0.3,0.2,0.6,0.5,0.6c0.3,0,0.6-0.2,0.6-0.5
		c0-0.3-0.2-0.6-0.5-0.6C78.2,7.9,77.9,8.2,77.9,8.5z M60.8,11.9c0.4-0.2,0.7-0.7,0.5-1.2c-0.2-0.5-0.7-0.7-1.2-0.5
		c-0.4,0.2-0.7,0.7-0.5,1.2C59.8,11.9,60.3,12.1,60.8,11.9z M62.5,9.1c-0.1-0.3-0.5-0.5-0.9-0.4c-0.3,0.1-0.5,0.5-0.4,0.9
		c0.1,0.3,0.6,0.5,0.9,0.4C62.5,9.8,62.6,9.5,62.5,9.1z M62.5,12.2c0.3-0.1,0.5-0.4,0.3-0.7c-0.1-0.3-0.4-0.4-0.7-0.3
		c-0.3,0.1-0.5,0.4-0.4,0.7C61.8,12.1,62.2,12.3,62.5,12.2z M68.7,6.9c0.1,0.5,0.6,0.8,1.1,0.6c0.5-0.1,0.8-0.6,0.7-1.1
		c-0.1-0.5-0.6-0.8-1.1-0.7C68.8,6,68.6,6.4,68.7,6.9z M72.7,6.8C73,6.7,73.2,6.4,73.2,6c-0.1-0.4-0.4-0.6-0.8-0.5
		C72,5.6,71.8,6,71.8,6.3C71.9,6.7,72.3,6.9,72.7,6.8z M64.8,7.7c0.1,0.3,0.4,0.5,0.7,0.5c0.3-0.1,0.5-0.4,0.5-0.7
		c-0.1-0.3-0.4-0.5-0.7-0.5C65,7.1,64.8,7.4,64.8,7.7z"/>
	<path class="st0" d="M87.5,27.5c0,1,0.1,2-0.6,2.8c-0.5,0.6-1.2,1-2,1.1c-1.3,0-24.5,0-26.2,0c-1.6,0-2.8-1.2-2.8-2.8
		c0-0.3,0-0.7,0-1.1c0.1,0,0.2,0,0.3,0C63.2,27.5,86.7,27.5,87.5,27.5z"/>
	<path class="st0" d="M71.9,15.7c5.4,0,10.8,0,16.1,0c0.5,0,0.8,0.2,0.9,0.6c0.1,0.3,0,0.7-0.3,0.9c-0.1,0.1-0.3,0.2-0.5,0.2
		c-0.1,0-0.2,0-0.4,0c-5.2,0-10.4,0-15.7,0c-5.4,0-10.9,0-16.3,0c-0.6,0-0.9-0.2-1-0.7c-0.1-0.5,0.3-1,0.8-1c0.1,0,0.2,0,0.3,0
		c4.3,0,8.7,0,13,0C69.9,15.7,70.9,15.7,71.9,15.7z"/>
	<path class="st0" d="M63,24.3c2.6,0,5.2,0,7.8,0c0.2,0,0.4,0.1,0.4,0.4c0.1,0.3,0,0.6-0.1,0.7c-0.1,0.1-0.2,0.1-0.2,0.2
		c-0.1,0-0.1,0-0.2,0c-2.5,0-5,0-7.5,0c-2.6,0-5.2,0-7.9,0c-0.3,0-0.4-0.2-0.5-0.5c-0.1-0.4,0.1-0.8,0.4-0.8c0,0,0.1,0,0.1,0
		c2.1,0,4.2,0,6.3,0C62.1,24.3,62.5,24.3,63,24.3z"/>
	<path class="st0" d="M80.7,24.3c2.6,0,5.2,0,7.8,0c0.2,0,0.4,0.1,0.4,0.4c0.1,0.3,0,0.6-0.1,0.7c-0.1,0.1-0.2,0.1-0.2,0.2
		c-0.1,0-0.1,0-0.2,0c-2.5,0-5,0-7.5,0c-2.6,0-5.2,0-7.9,0c-0.3,0-0.4-0.2-0.5-0.5c-0.1-0.4,0.1-0.8,0.4-0.8c0,0,0.1,0,0.1,0
		c2.1,0,4.2,0,6.3,0C79.8,24.3,80.3,24.3,80.7,24.3z"/>
	<path class="st0" d="M86.7,23H56.4c-0.9,0-1.6-0.7-1.6-1.6v-1.2c0-0.9,0.7-1.6,1.6-1.6h30.3c0.9,0,1.6,0.7,1.6,1.6v1.2
		C88.3,22.3,87.6,23,86.7,23z"/>
	<g>
		<path class="st0" d="M115.2,35.3c-0.6,0-1.1-0.3-1.4-0.8c-4.2-7.7-11-13.4-19.3-16.1c-0.8-0.3-1.3-1.2-1-2c0.3-0.8,1.2-1.3,2-1
			c9,3,16.5,9.3,21.1,17.7c0.4,0.8,0.1,1.8-0.6,2.2C115.7,35.3,115.5,35.3,115.2,35.3z"/>
	</g>
	<g>
		<path class="st0" d="M38.6,27.4c-0.4,0-0.8-0.2-1.1-0.5c-0.6-0.6-0.6-1.6,0-2.3c3.3-3.3,7.1-6,11.3-7.9c0.8-0.4,1.8,0,2.1,0.8
			c0.4,0.8,0,1.8-0.8,2.1c-3.9,1.8-7.3,4.2-10.3,7.2C39.5,27.3,39,27.4,38.6,27.4z"/>
	</g>
	<path class="st0" d="M83.5,36.8c-1.8,0-3.4,1-4.9,2.7l0.2-0.9c0.3-1.4-0.4-2-1.6-2c-1.5,0-2.8,0.7-4,1.6c-0.7,0.6-0.5,1.7,0,2
		c0.3-0.3,0.5-0.4,0.7-0.4c0.3,0,0.5,0.3,0.3,0.9L70,59.3l4.7-2.5l0.6-2.6c0.7,0.6,1.6,1,2.4,1c6,0.1,10-6.9,10.1-12.4
		C87.9,39.5,86.6,36.8,83.5,36.8z M77.6,52.4c-0.6,0-1.1-0.1-1.8-0.4l2.1-9.4c1.2-1.5,2.5-2.3,3.5-2.2c1.2,0,2.1,1.2,2,3.7
		C83.4,47.6,81.1,52.5,77.6,52.4z"/>
</g>
</svg>
