<?xml version="1.0" encoding="utf-8"?>
<!-- Generator: Adobe Illustrator 24.1.1, SVG Export Plug-In . SVG Version: 6.00 Build 0)  -->
<svg version="1.1" id="Calque_1" xmlns="http://www.w3.org/2000/svg" xmlns:xlink="http://www.w3.org/1999/xlink" x="0px" y="0px"
	 viewBox="0 0 144 71.2" style="enable-background:new 0 0 144 71.2;" xml:space="preserve">
<style type="text/css">
	.st0{fill:#683113;}
	.st1{fill:#E95230;}
	.st2{fill:#F3931E;}
	.st3{fill:#5DAE31;}
	.st4{fill:#E9522C;}
	.st5{fill:none;}
</style>
<g>
	<path class="st0" d="M19.7,27.9c-3.5-0.1-7.7,2.1-7.7,5.8c0,0.9,0.2,1.6,0.7,2.1c-0.5,0.2-1,0.3-1.5,0.3c-1.8,0-2.8-1.7-2.8-3.5
		c0.1-4,6.5-6.5,12-6.4c4.4,0.1,7.6,1.2,7.5,5.4c-0.1,2.8-2.1,6-5.7,7.8l0,0c3.7,0.1,5.3,2.1,5.2,4.7c-0.1,4.4-4.9,10.2-11.6,10
		c-3.9-0.1-7.1-1.2-7.1-2.9c0-0.8,0.5-1.5,1.5-1.8c0.5,0.5,1,0.9,1.6,1.2l4.4-19.3c0.4-1.7,1.8-2.3,3.1-2.2c0.6,0,1.3,0.2,1.7,0.5
		l-2.3,9.7c2.9-0.8,5.2-4.4,5.2-7.4C23.9,29.2,22.6,28,19.7,27.9z M18.2,41.2l-2.5,10.8l0,0c3.6,0.1,7-3.8,7-7.7
		c0-1.9-0.9-3.2-3-3.3C19.3,41,18.8,41.1,18.2,41.2z"/>
	<path class="st0" d="M46.7,40.1c-0.9,0.8-2.3,2.4-3.8,3.3c0,0.1,0,0.3,0,0.4c-0.1,5.5-5.2,10.9-9.4,10.8c-3.6-0.1-5.1-3.1-5-6.5
		c0.1-5.5,4-12.2,9.3-12.1c1.8,0,3.2,0.6,4.2,2.2c-0.1,0.8-0.7,1.2-1.2,1c-0.7-0.3-1.4-0.4-2.2-0.4c-3.2-0.1-5.4,4.7-5.5,8.3
		c-0.1,3.2,1,4.4,2.2,4.5c1.8,0,4.1-2.6,4.2-5.8c0-0.5,0-1-0.1-1.5c-0.6-0.1-1.2-0.2-1.6-0.5c-0.7-2,0.1-3.8,2.1-3.7
		c1.2,0,2.2,0.7,2.7,1.7c1.4-0.9,2.8-2.4,4.3-3.6C47.4,38.7,47.2,39.7,46.7,40.1z"/>
	<path class="st0" d="M58.5,49.1c-0.4,1.8,0,2.6,0.7,2.7c0.6,0,1.5-0.4,2-1.7c0.7,0,1,0.4,1,1c-0.1,2.5-3,4.2-5,4.1
		c-1.8,0-4.2-1-3.3-5.2l1.6-7.2c0.4-1.5-0.1-2.1-0.9-2.2c-1,0-2.4,0.9-3.2,1.8l-2.4,10.2c-0.4,1.7-1.7,2.2-3,2.2
		c-0.6,0-1.2-0.2-1.6-0.5l3.2-13.8c0.2-0.6,0-0.9-0.3-0.9c-0.2,0-0.4,0.1-0.7,0.4c-0.5-0.3-0.7-1.4,0-2c1.2-0.9,2.5-1.7,4-1.6
		c1.3,0,2,0.7,1.6,2L52,40.1c1.5-2.1,3.8-3.5,5.9-3.5c1.9,0,3.1,1.6,2.3,5.4L58.5,49.1z"/>
	<path class="st0" d="M92.7,55.9c-1.8,0-3.3-0.9-3.7-2.8c-1.1,0.4-2.4-0.2-2.5-1.5c1-0.2,1.7-0.8,2.6-1.6c1.9-12.8,4.4-20.2,9-20.1
		c1.7,0,2.8,1.1,2.8,3c-0.1,2.8-2.5,8.5-7.2,15.6c-0.1,0.4-0.2,0.9-0.2,1.3c-0.3,1.9,0.6,2.6,1.8,2.6c1.9,0,4.8-1.7,5.5-3.6
		c0.7-0.1,1.1,0.7,0.8,1.4C100.3,53.5,96,56,92.7,55.9z M94.1,45.3c3.2-5.8,4.6-10.9,4.7-12.1c0-0.6-0.2-0.8-0.6-0.8
		C97.1,32.3,95.5,37.7,94.1,45.3z"/>
	<path class="st0" d="M113,38.9c0.6-0.7,1.5-1,2.4-1c0.6,0,1.2,0.2,1.6,0.5l-2.7,11.9c-0.5,2,0.1,2.7,1,2.7c1.3,0,2.8-0.8,3.7-1.7
		c0.4,0.2,0.6,0.5,0.6,0.9c0,0.3-0.1,0.5-0.3,0.8c-1.7,1.9-4.3,3.5-6.2,3.4c-1.7,0-3.3-0.9-3.2-3.7c-1.5,2.1-3.4,3.6-5.4,3.5
		c-3.7-0.1-4.3-3.9-4.3-6.2c0.1-6.3,4.3-12.5,9.2-12.4C111,37.6,112.1,38.1,113,38.9z M112.3,40.7c-0.6-0.2-1.1-0.3-1.6-0.3
		c-4.3-0.1-5.9,5.6-6,9.5c0,1.8,0.8,2.6,1.8,2.6c1.1,0,2.6-0.9,3.6-2.2L112.3,40.7z"/>
	<path class="st0" d="M131.6,50.7c-0.4,1.8,0,2.6,0.7,2.7c0.6,0,1.5-0.4,2-1.7c0.7,0,1,0.4,1,1c-0.1,2.5-3,4.2-5,4.1
		c-1.8,0-4.2-1-3.3-5.2l1.6-7.2c0.4-1.5-0.1-2.1-0.9-2.2c-1,0-2.4,0.9-3.2,1.8l-2.4,10.2c-0.4,1.7-1.7,2.2-3,2.2
		c-0.6,0-1.2-0.2-1.6-0.5l3.2-13.8c0.2-0.6,0-0.9-0.3-0.9c-0.2,0-0.4,0.1-0.7,0.4c-0.5-0.3-0.7-1.4,0-2c1.2-0.9,2.5-1.7,4-1.6
		c1.3,0,2,0.7,1.6,2l-0.4,1.6c1.5-2.1,3.8-3.5,5.9-3.5c1.9,0,3.1,1.6,2.3,5.4L131.6,50.7z"/>
	<g>
		<g>
			<path class="st1" d="M8.7,67.6l0-0.9l0.3,0c0.2,0,0.3-0.1,0.3-0.3l0-4.9l-0.6,0l0-0.9l5.1,0l0,1.7l-1.1,0.1l0-0.4
				c0-0.1,0-0.2-0.1-0.3c0,0-0.1-0.1-0.3-0.1l-1.8,0l0,1.9l2.6,0l0,1.1l-2.6,0l0,2.1l0.9,0l0,0.9L8.7,67.6z"/>
			<path class="st1" d="M23.5,66.4l1.7-4.9l-0.7-0.1l0-0.9l2.4,0l2.2,6.1h0l0.6,0l0,0.9l-2.7,0l0-0.9l0.4,0c0.1,0,0.2,0,0.2-0.1
				c0,0,0-0.1,0-0.2l-0.2-0.7l-2.5,0l-0.3,0.9l0.6,0l0,0.9l-2.4,0l0-0.9l0.3,0C23.4,66.7,23.5,66.6,23.5,66.4z M26.2,61.7l-1,3l2,0
				L26.2,61.7L26.2,61.7z"/>
			<path class="st1" d="M41.7,66.6c0.8,0,1.3-0.3,1.3-1c0-0.4-0.2-0.6-0.6-0.8c-0.2-0.1-0.5-0.2-0.8-0.3c-0.3-0.1-0.6-0.2-0.8-0.3
				c-0.2-0.1-0.4-0.2-0.6-0.4c-0.4-0.3-0.6-0.8-0.6-1.4c0-0.6,0.2-1.1,0.7-1.5c0.4-0.4,1-0.6,1.7-0.6c0.7,0,1.4,0.1,2,0.4l0,1.6
				l-1.1,0.1l0-0.6c0-0.1,0-0.2,0-0.2c-0.1-0.1-0.3-0.2-0.7-0.2c-0.4,0-0.7,0.1-0.9,0.2s-0.3,0.4-0.3,0.7c0,0.2,0.1,0.4,0.3,0.6
				c0.1,0.1,0.3,0.2,0.5,0.3c0.2,0.1,0.5,0.1,0.7,0.2c0.2,0.1,0.5,0.2,0.7,0.3c0.2,0.1,0.4,0.2,0.6,0.4c0.4,0.3,0.6,0.8,0.6,1.5
				s-0.2,1.2-0.7,1.6c-0.5,0.4-1.1,0.6-1.9,0.6c-0.8,0-1.5-0.1-2.1-0.4l0-1.7l1.1-0.1l0,0.6c0,0.1,0,0.2,0,0.2c0,0,0.1,0.1,0.3,0.1
				C41.1,66.6,41.4,66.6,41.7,66.6z"/>
			<path class="st1" d="M56.3,66.3l0-4.8l-0.8,0c-0.2,0-0.2,0.1-0.2,0.3l0,0.5l-1.1-0.1l0-1.8l5.5,0l0,1.8l-1.1,0.1l0-0.5
				c0-0.1,0-0.2-0.1-0.3c0,0-0.1-0.1-0.3-0.1l-0.7,0l0,5l0.8,0l0,0.9l-3,0l0-0.9l0.6,0C56.2,66.6,56.3,66.5,56.3,66.3z"/>
			<path class="st1" d="M68.9,64.9l0-1l2.8,0l0,1L68.9,64.9z"/>
			<path class="st1" d="M81.7,67.4l0-0.9l0.3,0c0.2,0,0.3-0.1,0.3-0.3l0-4.9l-0.6,0l0-0.9l5.1,0l0,1.7l-1.1,0.1v-0.4
				c0-0.1,0-0.2-0.1-0.3c0,0-0.1-0.1-0.3-0.1l-1.8,0l0,1.9l2.6,0l0,1.1l-2.6,0l0,2.1l0.9,0l0,0.9L81.7,67.4z"/>
			<path class="st1" d="M100,60.3c0.8,0,1.5,0.3,2.1,0.9c0.6,0.6,0.8,1.5,0.8,2.7c0,1.2-0.3,2.1-0.8,2.8c-0.6,0.6-1.3,0.9-2.3,0.9
				c-1,0-1.7-0.3-2.2-0.9c-0.5-0.6-0.8-1.5-0.8-2.7c0-0.6,0.1-1.2,0.3-1.7c0.2-0.5,0.4-0.9,0.7-1.1C98.5,60.5,99.2,60.3,100,60.3z
				 M98.2,63.9c0,1.7,0.6,2.6,1.8,2.6c0.6,0,1.1-0.3,1.4-0.8c0.2-0.5,0.4-1,0.4-1.7c0-0.6-0.1-1.2-0.3-1.7c-0.1-0.3-0.3-0.5-0.5-0.7
				c-0.2-0.2-0.6-0.2-0.9-0.2c-0.4,0-0.7,0.1-1,0.4c-0.3,0.3-0.5,0.6-0.6,0.9C98.2,63,98.2,63.4,98.2,63.9z"/>
			<path class="st1" d="M116.4,60.2c0.8,0,1.5,0.3,2.1,0.9c0.6,0.6,0.8,1.5,0.8,2.7c0,1.2-0.3,2.1-0.8,2.8c-0.6,0.6-1.3,0.9-2.3,0.9
				c-1,0-1.7-0.3-2.2-0.9c-0.5-0.6-0.8-1.5-0.8-2.7c0-0.6,0.1-1.2,0.3-1.7c0.2-0.5,0.4-0.9,0.7-1.1
				C114.8,60.5,115.6,60.2,116.4,60.2z M114.5,63.8c0,1.7,0.6,2.6,1.8,2.6c0.6,0,1.1-0.3,1.4-0.8c0.2-0.5,0.4-1,0.4-1.7
				c0-0.6-0.1-1.2-0.3-1.7c-0.1-0.3-0.3-0.5-0.5-0.7c-0.2-0.2-0.6-0.2-0.9-0.2c-0.4,0-0.7,0.1-1,0.4c-0.3,0.3-0.5,0.6-0.6,0.9
				C114.5,63,114.5,63.4,114.5,63.8z"/>
			<path class="st1" d="M129.5,67.3l0-0.9l0.3,0c0.2,0,0.3-0.1,0.3-0.3l0-4.9l-0.6,0l0-0.9l2.9,0c1,0,1.8,0.3,2.4,0.8
				s0.9,1.4,0.9,2.4c0,0.7-0.1,1.2-0.3,1.7c-0.2,0.5-0.4,0.9-0.7,1.2c-0.6,0.6-1.4,0.8-2.3,0.8L129.5,67.3z M131.4,61.3l0,5l1.1,0
				c0.6,0,1.1-0.2,1.4-0.7s0.5-1.1,0.5-1.9c0-1.6-0.7-2.4-2.1-2.4L131.4,61.3z"/>
		</g>
	</g>
	<path class="st2" d="M87.6,14.5c-0.2,0-0.5,0-0.7,0c-4,0-8,0-11.9,0c-6.2,0-12.4,0-18.6,0c-0.4,0-0.4,0-0.4-0.4c0-0.6,0-1.2,0-1.8
		c0.1-1.3,0.8-2.3,1.7-3.2c1.2-1.2,2.6-2.1,4.1-2.7c2.5-1.1,5-1.6,7.7-1.8c2.4-0.2,4.8-0.1,7.2,0.3c1.2,0.2,2.5,0.6,3.7,0.9
		C82,6.3,83.5,7,84.8,8.1c1.1,0.9,2.1,1.9,2.5,3.3c0.1,0.5,0.2,0.9,0.2,1.4C87.6,13.4,87.6,13.9,87.6,14.5z M78.8,7.5
		c0,0.5,0.4,0.9,0.9,0.9c0.5,0,0.9-0.4,0.9-0.9c0-0.5-0.4-0.9-0.9-0.9C79.2,6.6,78.8,6.9,78.8,7.5z M80.7,10.2
		c0.4,0,0.7-0.3,0.7-0.6c0-0.4-0.3-0.7-0.6-0.7c-0.4,0-0.7,0.3-0.7,0.7C80,9.8,80.3,10.1,80.7,10.2z M77.9,8.9
		c0,0.3,0.2,0.6,0.5,0.6C78.8,9.5,79,9.3,79,9c0-0.3-0.2-0.6-0.5-0.6C78.2,8.3,77.9,8.6,77.9,8.9z M60.8,12.3
		c0.4-0.2,0.7-0.7,0.5-1.2c-0.2-0.5-0.7-0.7-1.2-0.5c-0.4,0.2-0.7,0.7-0.5,1.2C59.8,12.3,60.3,12.5,60.8,12.3z M62.5,9.5
		C62.3,9.2,62,9,61.6,9.2c-0.3,0.1-0.5,0.5-0.4,0.9c0.1,0.3,0.6,0.5,0.9,0.4C62.5,10.3,62.6,9.9,62.5,9.5z M62.5,12.6
		c0.3-0.1,0.5-0.4,0.3-0.7c-0.1-0.3-0.4-0.4-0.7-0.3c-0.3,0.1-0.5,0.4-0.4,0.7C61.8,12.6,62.2,12.7,62.5,12.6z M68.7,7.4
		c0.1,0.5,0.6,0.8,1.1,0.6c0.5-0.1,0.8-0.6,0.7-1.1c-0.1-0.5-0.6-0.8-1.1-0.7C68.8,6.4,68.6,6.8,68.7,7.4z M72.7,7.2
		c0.4-0.1,0.6-0.4,0.5-0.8c-0.1-0.4-0.4-0.6-0.8-0.5C72,6,71.8,6.4,71.8,6.7C71.9,7.1,72.3,7.3,72.7,7.2z M64.8,8.2
		c0.1,0.3,0.4,0.5,0.7,0.5C65.8,8.6,66,8.3,65.9,8c-0.1-0.3-0.4-0.5-0.7-0.5C65,7.5,64.8,7.9,64.8,8.2z"/>
	<path class="st2" d="M87.5,27.9c0,1,0.1,2-0.6,2.8c-0.5,0.6-1.2,1-2,1.1c-1.3,0-24.5,0-26.2,0c-1.6,0-2.8-1.2-2.8-2.8
		c0-0.3,0-0.7,0-1.1c0.1,0,0.2,0,0.3,0C63.2,27.9,86.7,27.9,87.5,27.9z"/>
	<path class="st3" d="M71.9,16.1c5.4,0,10.8,0,16.1,0c0.5,0,0.8,0.2,0.9,0.6c0.1,0.3,0,0.7-0.3,0.9c-0.1,0.1-0.3,0.2-0.5,0.2
		c-0.1,0-0.2,0-0.4,0c-5.2,0-10.4,0-15.7,0c-5.4,0-10.9,0-16.3,0c-0.6,0-0.9-0.2-1-0.7c-0.1-0.5,0.3-1,0.8-1c0.1,0,0.2,0,0.3,0
		c4.3,0,8.7,0,13,0C69.9,16.1,70.9,16.1,71.9,16.1z"/>
	<path class="st3" d="M63,24.7c2.6,0,5.2,0,7.8,0c0.2,0,0.4,0.1,0.4,0.4c0.1,0.3,0,0.6-0.1,0.7C71,26,71,26,70.9,26.1
		c-0.1,0-0.1,0-0.2,0c-2.5,0-5,0-7.5,0c-2.6,0-5.2,0-7.9,0c-0.3,0-0.4-0.2-0.5-0.5c-0.1-0.4,0.1-0.8,0.4-0.8c0,0,0.1,0,0.1,0
		c2.1,0,4.2,0,6.3,0C62.1,24.7,62.5,24.7,63,24.7z"/>
	<path class="st3" d="M80.7,24.7c2.6,0,5.2,0,7.8,0c0.2,0,0.4,0.1,0.4,0.4c0.1,0.3,0,0.6-0.1,0.7c-0.1,0.1-0.2,0.1-0.2,0.2
		c-0.1,0-0.1,0-0.2,0c-2.5,0-5,0-7.5,0c-2.6,0-5.2,0-7.9,0c-0.3,0-0.4-0.2-0.5-0.5c-0.1-0.4,0.1-0.8,0.4-0.8c0,0,0.1,0,0.1,0
		c2.1,0,4.2,0,6.3,0C79.8,24.7,80.3,24.7,80.7,24.7z"/>
	<path class="st4" d="M86.7,23.4H56.4c-0.9,0-1.6-0.7-1.6-1.6v-1.2c0-0.9,0.7-1.6,1.6-1.6h30.3c0.9,0,1.6,0.7,1.6,1.6v1.2
		C88.3,22.7,87.6,23.4,86.7,23.4z"/>
	<g>
		<path class="st0" d="M115.2,35.8c-0.6,0-1.1-0.3-1.4-0.8c-4.2-7.7-11-13.4-19.3-16.1c-0.8-0.3-1.3-1.2-1-2c0.3-0.8,1.2-1.3,2-1
			c9,3,16.5,9.3,21.1,17.7c0.4,0.8,0.1,1.8-0.6,2.2C115.7,35.7,115.5,35.8,115.2,35.8z"/>
	</g>
	<g>
		<path class="st0" d="M38.6,27.8c-0.4,0-0.8-0.2-1.1-0.5c-0.6-0.6-0.6-1.6,0-2.3c3.3-3.3,7.1-6,11.3-7.9c0.8-0.4,1.8,0,2.1,0.8
			c0.4,0.8,0,1.8-0.8,2.1c-3.9,1.8-7.3,4.2-10.3,7.2C39.5,27.7,39,27.8,38.6,27.8z"/>
	</g>
	<path class="st5" d="M81.5,40.8c-1.1,0-2.3,0.8-3.5,2.2l-2.1,9.4c0.6,0.4,1.2,0.4,1.8,0.4c3.6,0.1,5.9-4.8,5.9-8.4
		C83.5,41.9,82.7,40.8,81.5,40.8z"/>
	<path class="st0" d="M83.5,37.2c-1.8,0-3.4,1-4.9,2.7l0.2-0.9c0.3-1.4-0.4-2-1.6-2c-1.5,0-2.8,0.7-4,1.6c-0.7,0.6-0.5,1.7,0,2
		c0.3-0.3,0.5-0.4,0.7-0.4c0.3,0,0.5,0.3,0.3,0.9L70,59.8l4.7-2.5l0.6-2.6c0.7,0.6,1.6,1,2.4,1c6,0.1,10-6.9,10.1-12.4
		C87.9,40,86.6,37.3,83.5,37.2z M77.6,52.8c-0.6,0-1.1-0.1-1.8-0.4l2.1-9.4c1.2-1.5,2.5-2.3,3.5-2.2c1.2,0,2.1,1.2,2,3.7
		C83.4,48,81.1,52.9,77.6,52.8z"/>
</g>
</svg>
